# xmcd
#
# Track frame offsets:
#	150
#	17695
#	37781
#	63444
#	81602
#	103541
#	118703
#	139966
#	154152
#	171316
#	185959
#
# Disc length: 2734 seconds
#
# Revision: 0
# Processed by: cddbd v1.5.2PL0 Copyright (c) Steve Scherf et al.
# Submitted via: EasyCDDAExtractor 9.0.0.1
#
DISCID=990aac0b
DTITLE=Hisa - Za en dotik
DYEAR=2006
DGENRE=Acoustic
TTITLE0=Na klopi
TTITLE1=Fatamorgana blues
TTITLE2=Pale sam na svetu
TTITLE3=Sprememba
TTITLE4=Novo zivljenje
TTITLE5=Galeb
TTITLE6=Za en dotik
TTITLE7=Soncen dan
TTITLE8=Ljubezen za denar
TTITLE9=Modro nebo
TTITLE10=Tezek zrak
EXTD=
EXTT0=
EXTT1=
EXTT2=
EXTT3=
EXTT4=
EXTT5=
EXTT6=
EXTT7=
EXTT8=
EXTT9=
EXTT10=
PLAYORDER=
